<svg xmlns="http://www.w3.org/2000/svg" xmlns:xlink="http://www.w3.org/1999/xlink" width="35" height="35" viewBox="0 0 35 35">
  <defs>
    <clipPath id="clip-path">
      <rect id="사각형_1585" data-name="사각형 1585" width="35" height="35" fill="none"/>
    </clipPath>
  </defs>
  <g id="그룹_196" data-name="그룹 196" clip-path="url(#clip-path)">
    <path id="패스_537" data-name="패스 537" d="M42.488,27.2a3.339,3.339,0,1,1,3.339-3.338A3.343,3.343,0,0,1,42.488,27.2m0-4.655A1.316,1.316,0,1,0,43.8,23.861a1.318,1.318,0,0,0-1.316-1.317" transform="translate(-19.347 -10.142)" fill="#737272"/>
    <path id="패스_538" data-name="패스 538" d="M44.857,39.612A1.012,1.012,0,0,1,43.845,38.6V37.248a2.134,2.134,0,0,0-2.132-2.131H39.868a2.134,2.134,0,0,0-2.131,2.131V38.6a1.012,1.012,0,1,1-2.023,0V37.248a4.16,4.16,0,0,1,4.155-4.155h1.846a4.16,4.16,0,0,1,4.155,4.155V38.6a1.011,1.011,0,0,1-1.012,1.012" transform="translate(-17.649 -16.355)" fill="#737272"/>
    <path id="패스_539" data-name="패스 539" d="M22.508,26.1a4.279,4.279,0,1,1,4.279-4.279A4.284,4.284,0,0,1,22.508,26.1m0-6.535a2.256,2.256,0,1,0,2.256,2.256,2.258,2.258,0,0,0-2.256-2.256" transform="translate(-9.009 -8.667)" fill="#832beb"/>
    <path id="패스_540" data-name="패스 540" d="M25.833,43.519a1.012,1.012,0,0,1-1.012-1.012v-1.9a3.4,3.4,0,0,0-3.4-3.4H18.83a3.4,3.4,0,0,0-3.4,3.4v1.9a1.012,1.012,0,0,1-2.023,0v-1.9a5.43,5.43,0,0,1,5.424-5.424H21.42a5.43,5.43,0,0,1,5.424,5.424v1.9a1.012,1.012,0,0,1-1.012,1.012" transform="translate(-6.625 -17.388)" fill="#832beb"/>
    <path id="패스_541" data-name="패스 541" d="M17.5,35A17.5,17.5,0,1,1,35,17.5,17.52,17.52,0,0,1,17.5,35m0-32.977A15.477,15.477,0,1,0,32.977,17.5,15.494,15.494,0,0,0,17.5,2.023" transform="translate(0 0)" fill="#737272"/>
  </g>
</svg>
