<svg xmlns="http://www.w3.org/2000/svg" xmlns:xlink="http://www.w3.org/1999/xlink" width="35" height="35" viewBox="0 0 35 35">
  <defs>
    <clipPath id="clip-path">
      <rect id="사각형_1580" data-name="사각형 1580" width="35" height="35" fill="none"/>
    </clipPath>
  </defs>
  <g id="그룹_190" data-name="그룹 190" clip-path="url(#clip-path)">
    <path id="패스_529" data-name="패스 529" d="M30.28,24.725A4.42,4.42,0,1,1,34.7,20.3a4.425,4.425,0,0,1-4.421,4.42m0-6.817a2.4,2.4,0,1,0,2.4,2.4,2.4,2.4,0,0,0-2.4-2.4" transform="translate(-12.781 -7.85)" fill="#832beb"/>
    <path id="패스_530" data-name="패스 530" d="M33.747,42.9a1.011,1.011,0,0,1-1.012-1.012V39.911a3.6,3.6,0,0,0-3.592-3.591h-2.7a3.6,3.6,0,0,0-3.592,3.591v1.981a1.012,1.012,0,1,1-2.023,0V39.911A5.621,5.621,0,0,1,26.441,34.3h2.7a5.621,5.621,0,0,1,5.615,5.614v1.981A1.011,1.011,0,0,1,33.747,42.9" transform="translate(-10.293 -16.95)" fill="#832beb"/>
    <path id="패스_531" data-name="패스 531" d="M17.5,35A17.5,17.5,0,1,1,35,17.5,17.519,17.519,0,0,1,17.5,35m0-32.975A15.476,15.476,0,1,0,32.976,17.5,15.494,15.494,0,0,0,17.5,2.023" transform="translate(0 0)" fill="#737272"/>
  </g>
</svg>
