<svg id="그룹_209" data-name="그룹 209" xmlns="http://www.w3.org/2000/svg" xmlns:xlink="http://www.w3.org/1999/xlink" width="16.346" height="13.872" viewBox="0 0 16.346 13.872">
  <defs>
    <clipPath id="clip-path">
      <rect id="사각형_1591" data-name="사각형 1591" width="16.346" height="13.872" fill="none"/>
    </clipPath>
  </defs>
  <g id="그룹_208" data-name="그룹 208" transform="translate(0 0)" clip-path="url(#clip-path)">
    <path id="패스_561" data-name="패스 561" d="M5.7,7.409h0a.472.472,0,0,1-.472-.472A6.939,6.939,0,0,1,17.07,2.029.472.472,0,0,1,16.4,2.7,5.994,5.994,0,0,0,6.169,6.936a.472.472,0,0,1-.472.472" transform="translate(-3.99 0)" fill="#737272"/>
    <path id="패스_562" data-name="패스 562" d="M18.287,34.768a6.915,6.915,0,0,1-4.907-2.029.472.472,0,1,1,.668-.668,5.994,5.994,0,0,0,10.233-4.239.472.472,0,1,1,.945,0,6.933,6.933,0,0,1-6.939,6.936" transform="translate(-10.114 -20.896)" fill="#737272"/>
    <path id="패스_563" data-name="패스 563" d="M1.707,26.3h0a.473.473,0,0,1-.334-.138L.139,24.931a.472.472,0,0,1,.668-.668l.9.9.9-.9a.472.472,0,0,1,.668.668L2.041,26.165a.473.473,0,0,1-.334.138" transform="translate(0 -18.425)" fill="#737272"/>
    <path id="패스_564" data-name="패스 564" d="M57.688,27.55a.471.471,0,0,1-.334-.138l-.9-.9-.9.9a.472.472,0,0,1-.668-.668L56.12,25.51a.472.472,0,0,1,.668,0l1.234,1.234a.472.472,0,0,1-.334.806" transform="translate(-41.814 -19.378)" fill="#737272"/>
    <path id="패스_565" data-name="패스 565" d="M25.031,25.5h0a.432.432,0,0,1-.407-.286L23.448,21.96l-1.177,3.253a.433.433,0,0,1-.814,0l-1.584-4.378a.433.433,0,0,1,.814-.294l1.177,3.253,1.177-3.253a.433.433,0,0,1,.814,0l1.176,3.253,1.177-3.253a.433.433,0,1,1,.814.294l-1.584,4.378a.433.433,0,0,1-.407.285" transform="translate(-15.159 -15.47)" fill="#832beb"/>
    <path id="패스_566" data-name="패스 566" d="M26.357,29.563H19.79a.433.433,0,0,1,0-.865h6.567a.433.433,0,0,1,0,.865" transform="translate(-14.784 -21.919)" fill="#832beb"/>
  </g>
</svg>
