<svg xmlns="http://www.w3.org/2000/svg" xmlns:xlink="http://www.w3.org/1999/xlink" width="37" height="37" viewBox="0 0 37 37">
  <defs>
    <clipPath id="clip-path">
      <rect id="사각형_1604" data-name="사각형 1604" width="37" height="37" fill="none"/>
    </clipPath>
  </defs>
  <g id="그룹_234" data-name="그룹 234" transform="translate(0 0)">
    <g id="그룹_233" data-name="그룹 233" transform="translate(0 0)" clip-path="url(#clip-path)">
      <path id="패스_572" data-name="패스 572" d="M18.573,18.76a4.673,4.673,0,1,1,4.673-4.673,4.678,4.678,0,0,1-4.673,4.673m0-7.207a2.534,2.534,0,1,0,2.534,2.534,2.537,2.537,0,0,0-2.534-2.534" transform="translate(-1.359 -0.921)" fill="#737272"/>
      <path id="패스_573" data-name="패스 573" d="M24.577,29.425a1.069,1.069,0,0,1-1.069-1.069V26.262a3.8,3.8,0,0,0-3.8-3.8H16.853a3.8,3.8,0,0,0-3.8,3.8v2.094a1.07,1.07,0,0,1-2.139,0V26.262a5.942,5.942,0,0,1,5.936-5.935H19.71a5.942,5.942,0,0,1,5.936,5.935v2.094a1.069,1.069,0,0,1-1.069,1.069" transform="translate(-1.067 -1.988)" fill="#737272"/>
      <path id="패스_574" data-name="패스 574" d="M30.571,20.1H25.1a1.07,1.07,0,0,1,0-2.139h5.467a1.07,1.07,0,0,1,0,2.139" transform="translate(-2.35 -1.757)" fill="#832beb"/>
      <path id="패스_575" data-name="패스 575" d="M28.133,22.542a1.069,1.069,0,0,1-1.069-1.069V16.005a1.069,1.069,0,1,1,2.138,0v5.467a1.069,1.069,0,0,1-1.069,1.069" transform="translate(-2.646 -1.461)" fill="#832beb"/>
      <path id="패스_576" data-name="패스 576" d="M18.5,37A18.5,18.5,0,1,1,37,18.5,18.522,18.522,0,0,1,18.5,37m0-34.862A16.361,16.361,0,1,0,34.862,18.5,16.38,16.38,0,0,0,18.5,2.139" transform="translate(0 0)" fill="#737272"/>
    </g>
  </g>
</svg>
